<svg xmlns="http://www.w3.org/2000/svg" viewBox="0 0 512 116" > <path fill="#FF5900" d="M122.7,62.1L122.9,0L90.6,31.1H56.2l-33.3-31l0.2,62H0L72.1,116l72.1-53.9H122.7z M57.7,62.2H31.2l24.4-24.9 l18.1,16.8l16.9-16.2l23.9,24.4H86.7l-7.2,33.7v-0.3H64.9L57.7,62.2z M87.4,81.9h10.8l3.6-5H88.5l2.1-9.9h29.1V67h9.7l-46.2,34.6 L87.4,81.9z M117.8,58.6L94.2,34.4L118,11.5L117.8,58.6z M85.5,36L73.7,47.3L61.5,36H85.5z M52.1,34L27.9,58.6l-0.1-47.2L52.1,34z M24.7,67L24.7,67l29.1,0.1l2.1,9.9H42.4l3.6,5h11l4.3,19.8L14.7,67H24.7z M67.1,106.2l-1.2-5.7h12.5l-1.2,5.5l-5.2,3.9L67.1,106.2z "/> <g fill="#000000"> <polygon class="st0" points="365.7,97.3 377.4,97.3 400.2,76.7 422.9,97.3 434.6,97.3 400.2,66.2 	"/> <polygon class="st0" points="422.2,30.2 400.2,50.1 378.1,30.2 366.4,30.2 400.2,60.7 433.9,30.2 	"/> <polygon class="st0" points="215.6,97.9 223.5,97.9 223.5,67.7 261,67.7 261,59.8 215.6,59.8 	"/> <polygon class="st0" points="512,30.2 500.3,30.2 478.2,50.1 456.2,30.2 444.5,30.2 474.2,57.1 474.2,97.9 482,97.9 482,57.3 	"/> <path class="st0" d="M325.6,29.3c-19.3,0-35,15.7-35,35c0,19.3,15.7,35,35,35c19.3,0,35-15.7,35-35C360.7,45.1,345,29.3,325.6,29.3 z M325.6,91.5c-15,0-27.2-12.2-27.2-27.2c0-15,12.2-27.2,27.2-27.2c15,0,27.2,12.2,27.2,27.2C352.8,79.3,340.6,91.5,325.6,91.5z"/> <rect x="215.6" y="30.6" class="st0" width="72" height="7.8"/> </g> </svg>