<svg  xmlns="http://www.w3.org/2000/svg"  viewBox="0 0 512 412" > <path fill="#FF5900" d="M435.9,220.7L436.5,0L321.6,110.4h-122L81.3,0.5l0.6,220.2H0L256,412l256-191.3H435.9z M204.9,221h-94 l86.8-88.6l64.1,59.6l60-57.7l85,86.7h-99l-25.7,119.6v-1h-51.7L204.9,221z M310.4,291h38.2l12.8-17.7h-47.1l7.5-35H425v-0.2h34.6 L295.4,360.8L310.4,291z M418.5,208.1l-84.1-85.8L419,41L418.5,208.1z M303.5,127.8l-41.8,40.2l-43.3-40.2H303.5z M185,120.6 l-85.8,87.5L98.8,40.5L185,120.6z M87.7,238.1v0.2H191l7.5,35h-47.9l12.8,17.7h38.9l15.1,70.5L52.4,238.1H87.7z M238.4,377.2 l-4.3-20.1h44.5l-4.2,19.5L256,390.3L238.4,377.2z"/> </svg>